<svg width="32" height="32" viewBox="0 0 96 96" fill="none" xmlns="http://www.w3.org/2000/svg"><path fill-rule="evenodd" clip-rule="evenodd" d="M74.2466 58.2365C73.8246 58.4555 73.4936 58.8165 73.3136 59.2575C73.0466 59.9105 72.7336 60.5515 72.4356 61.1475C72.2246 61.5705 72.1686 62.0555 72.2806 62.5155L74.5846 71.9955L64.9836 71.0485C64.5066 70.9995 64.0246 71.1285 63.6326 71.4065C63.0306 71.8315 62.3946 72.2205 61.9076 72.5125C61.5016 72.7565 61.1946 73.1355 61.0416 73.5845L57.9046 82.7985L50.3436 76.7695C49.9696 76.4705 49.4926 76.3175 49.0216 76.3345C48.8526 76.3405 48.6846 76.3515 48.5176 76.3635C48.1746 76.3865 47.8246 76.3865 47.4806 76.3635C47.3136 76.3515 47.1456 76.3405 46.9776 76.3345C46.4966 76.3155 46.0306 76.4705 45.6556 76.7695L38.0946 82.7985L34.9566 73.5845C34.8046 73.1355 34.4976 72.7565 34.0916 72.5125C33.6046 72.2205 32.9686 71.8315 32.3666 71.4055C32.0266 71.1655 31.6226 71.0385 31.2106 71.0385C31.1456 71.0385 31.0796 71.0415 31.0146 71.0485L21.4146 71.9995L23.7176 62.5145C23.8296 62.0555 23.7746 61.5715 23.5626 61.1485C23.2806 60.5845 22.9556 59.9185 22.6836 59.2535C22.5026 58.8145 22.1726 58.4535 21.7516 58.2355L13.1686 53.7965L20.1556 47.1075C20.4976 46.7795 20.7126 46.3405 20.7616 45.8685C20.8346 45.1625 20.9596 44.4445 21.0806 43.7705C21.1646 43.3055 21.0816 42.8275 20.8466 42.4185L15.9936 33.9825L25.4816 32.1615C25.9506 32.0715 26.3716 31.8175 26.6686 31.4435C27.1186 30.8795 27.6036 30.3445 28.0186 29.8965C28.3406 29.5495 28.5286 29.0995 28.5496 28.6265L28.9866 18.8715L37.9126 22.5015C38.3586 22.6835 38.8526 22.6975 39.3086 22.5435C39.8786 22.3495 40.5066 22.1675 41.2846 21.9675C41.7466 21.8495 42.1516 21.5695 42.4256 21.1795L47.9996 13.2435L53.5736 21.1795C53.8486 21.5695 54.2526 21.8495 54.7146 21.9675C55.4946 22.1675 56.1226 22.3505 56.6896 22.5435C57.1456 22.6985 57.6426 22.6835 58.0856 22.5015L67.0116 18.8725L67.4486 28.6265C67.4706 29.0995 67.6576 29.5495 67.9796 29.8965C68.3966 30.3465 68.8836 30.8825 69.3286 31.4425C69.6266 31.8165 70.0476 32.0715 70.5176 32.1615L80.0066 33.9835L75.1516 42.4185C74.9166 42.8275 74.8326 43.3075 74.9176 43.7725C75.0386 44.4415 75.1636 45.1535 75.2366 45.8675C75.2846 46.3395 75.5006 46.7785 75.8436 47.1075L82.8306 53.7975L74.2466 58.2365ZM86.5596 51.8295L79.1246 44.7125C79.0806 44.3935 79.0316 44.0815 78.9806 43.7835L84.1446 34.8105C84.6276 33.9625 84.6766 32.9265 84.2746 32.0375C83.8676 31.1405 83.0496 30.4945 82.0826 30.3085L71.9786 28.3695C71.7866 28.1435 71.5966 27.9275 71.4126 27.7225L70.9466 17.3415C70.9076 16.3555 70.3906 15.4475 69.5596 14.9105C68.7266 14.3745 67.6856 14.2785 66.7786 14.6495L57.2526 18.5225C56.9916 18.4435 56.7186 18.3635 56.4286 18.2845L50.4796 9.81654C49.9246 9.02354 48.9966 8.55054 47.9996 8.55054C47.0016 8.55054 46.0746 9.02354 45.5186 9.81554L39.5716 18.2835C39.2806 18.3635 39.0076 18.4435 38.7466 18.5225L29.2236 14.6505C28.3106 14.2775 27.2686 14.3745 26.4376 14.9115C25.6106 15.4455 25.0926 16.3535 25.0516 17.3335L24.5866 27.7225C24.4026 27.9275 24.2116 28.1435 24.0196 28.3695L13.9136 30.3085C12.9486 30.4955 12.1296 31.1425 11.7256 32.0365C11.3206 32.9255 11.3706 33.9645 11.8596 34.8185L17.0176 43.7845C16.9666 44.0865 16.9176 44.3955 16.8736 44.7115L9.44359 51.8255C8.73459 52.4995 8.39259 53.4825 8.53059 54.4645C8.67059 55.4315 9.27059 56.2795 10.1426 56.7345L19.2786 61.4605C19.4046 61.7415 19.5336 62.0145 19.6596 62.2755L17.2126 72.3525C16.9766 73.3065 17.2186 74.3215 17.8626 75.0715C18.4396 75.7395 19.2766 76.1235 20.1576 76.1235C20.2286 76.1235 20.2966 76.1205 20.4546 76.1095L30.6846 75.0995C30.9336 75.2635 31.1756 75.4185 31.4046 75.5595L34.7496 85.3865C35.0686 86.3235 35.8216 87.0475 36.7416 87.3165C37.6826 87.6065 38.7406 87.4015 39.5076 86.7885L47.5496 80.3765C47.8486 80.3915 48.1506 80.3915 48.4496 80.3765L56.4916 86.7885C57.0256 87.2155 57.6956 87.4495 58.3786 87.4495C58.6756 87.4495 58.9696 87.4055 59.2336 87.3245C60.1796 87.0465 60.9326 86.3215 61.2486 85.3875L64.5946 75.5595C64.8236 75.4185 65.0656 75.2635 65.3136 75.0995L75.6336 76.1165C75.6716 76.1185 75.8056 76.1235 75.8436 76.1235C76.7266 76.1235 77.5646 75.7385 78.1396 75.0705C78.7816 74.3255 79.0236 73.3085 78.7896 72.3595L76.3396 62.2765C76.4676 62.0125 76.5956 61.7405 76.7206 61.4605L85.8646 56.7305C86.7276 56.2795 87.3276 55.4325 87.4716 54.4485C87.6036 53.4795 87.2636 52.5015 86.5596 51.8295ZM47.9996 66.8185C38.1186 66.8185 30.0796 58.6995 30.0796 48.7195C30.0796 38.7395 38.1186 30.6205 47.9996 30.6205C57.8806 30.6205 65.9196 38.7395 65.9196 48.7195C65.9196 58.6995 57.8806 66.8185 47.9996 66.8185ZM47.9996 26.6205C35.9126 26.6205 26.0796 36.5345 26.0796 48.7195C26.0796 60.9055 35.9126 70.8185 47.9996 70.8185C60.0866 70.8185 69.9196 60.9055 69.9196 48.7195C69.9196 36.5345 60.0866 26.6205 47.9996 26.6205Z" fill="white"></path></svg>