<svg xmlns="http://www.w3.org/2000/svg" xmlns:xlink="http://www.w3.org/1999/xlink" width="96" height="96" viewBox="0 0 96 96"><path d="M63.189,53.7214375 C63.189,52.8974375 62.936,51.6544375 61.732,50.4104375 C60.962,49.6164375 59.698,49.5974375 58.904,50.3664375 C58.111,51.1344375 58.09,52.4014375 58.859,53.1944375 C59.103,53.4454375 59.189,53.6354375 59.189,53.7214375 C59.189,54.5674375 55.341,57.0104375 48,57.0104375 C40.657,57.0104375 36.81,54.5674375 36.81,53.7214375 C36.81,53.6354375 36.896,53.4474375 37.138,53.1974375 C37.906,52.4044375 37.886,51.1374375 37.093,50.3684375 C36.299,49.6014375 35.034,49.6194375 34.265,50.4134375 C33.063,51.6554375 32.81,52.8974375 32.81,53.7214375 C32.81,58.5064375 40.451,61.0104375 48,61.0104375 C55.547,61.0104375 63.189,58.5064375 63.189,53.7214375 M56.005,30.0584375 C56.629,31.3054375 56.946,32.6514375 56.946,34.0574375 C56.946,38.9904375 52.932,43.0034375 48,43.0034375 C45.61,43.0034375 43.363,42.0734375 41.673,40.3834375 C39.983,38.6934375 39.053,36.4474375 39.053,34.0574375 C39.053,32.6514375 39.369,31.3064375 39.993,30.0594375 C41.016,28.0154375 45.057,23.1184375 48,19.9444375 C50.942,23.1174375 54.982,28.0144375 56.005,30.0584375 M60.946,34.0574375 C60.946,32.0244375 60.488,30.0764375 59.583,28.2684375 C57.987,25.0794375 52.028,18.2534375 49.414,15.6394375 C48.632,14.8594375 47.366,14.8594375 46.585,15.6404375 C43.971,18.2544375 38.012,25.0814375 36.416,28.2694375 C35.511,30.0774375 35.053,32.0254375 35.053,34.0574375 C35.053,37.5154375 36.399,40.7664375 38.845,43.2124375 C41.291,45.6574375 44.542,47.0034375 48,47.0034375 C55.138,47.0034375 60.946,41.1964375 60.946,34.0574375 M87.5,58.1574375 C87.5,52.4244375 84.776,47.3684375 79.623,43.5354375 C78.737,42.8744375 77.485,43.0614375 76.825,43.9464375 C76.166,44.8324375 76.349,46.0854375 77.236,46.7444375 C81.392,49.8364375 83.5,53.6764375 83.5,58.1574375 C83.5,68.3404375 67.243,76.9444375 47.999,76.9454375 C28.756,76.9454375 12.5,68.3414375 12.5,58.1574375 C12.5,53.5894375 14.449,49.7514375 18.293,46.7494375 C19.164,46.0694375 19.318,44.8124375 18.638,43.9424375 C17.959,43.0724375 16.701,42.9154375 15.831,43.5964375 C11.035,47.3434375 8.5,52.3774375 8.5,58.1574375 C8.5,70.9354375 25.85,80.9454375 47.999,80.9454375 C70.149,80.9444375 87.5,70.9344375 87.5,58.1574375 M47.999,70.0544375 C32.523,70.0544375 20.401,63.6774375 20.401,55.5354375 C20.401,52.1874375 22.539,48.9984375 26.422,46.5594375 C27.358,45.9724375 28.593,46.2534375 29.179,47.1884375 C29.767,48.1234375 29.485,49.3584375 28.55,49.9464375 C25.875,51.6274375 24.401,53.6134375 24.401,55.5354375 C24.401,61.7354375 36.837,66.0544375 47.999,66.0544375 C59.161,66.0534375 71.598,61.7344375 71.598,55.5354375 C71.598,53.5964375 70.057,51.6114375 67.26,49.9434375 C66.311,49.3774375 66.001,48.1504375 66.566,47.2014375 C67.131,46.2524375 68.361,45.9424375 69.307,46.5074375 C73.364,48.9244375 75.598,52.1314375 75.598,55.5354375 C75.598,63.6764375 63.475,70.0534375 47.999,70.0544375" fill="#000000" fill-rule="evenodd"></path></svg>