<svg xmlns="http://www.w3.org/2000/svg" xmlns:xlink="http://www.w3.org/1999/xlink" width="96" height="96" viewBox="0 0 96 96"><path d="M41.448,12.7165 C37.651,12.7175 34.813,14.5575 34.813,16.2015 C34.813,17.8465 37.651,19.6855 41.448,19.6865 C45.245,19.6865 48.082,17.8465 48.082,16.2015 C48.082,14.5565 45.245,12.7165 41.448,12.7165 M42.916,26.5515 C28.378,26.5525 26.374,28.8075 26.374,31.2435 C26.374,35.0235 31.939,36.9405 42.916,36.9415 C50.828,36.9415 56.407,36.6105 60.474,35.9005 C65.371,35.0445 67.115,33.7665 67.115,32.8545 C67.115,30.2835 57.688,26.5515 42.916,26.5515 M60.883,43.5105 C46.133,43.5105 33.092,46.2975 29.169,50.2865 C28.437,51.0305 28.088,51.7545 28.1,52.4985 C28.204,58.6145 52.8,58.6145 60.883,58.6145 C77.576,58.6135 83.5,54.1865 83.5,50.3955 C83.5,45.9565 75.468,43.5115 60.883,43.5105 M38.989,65.1745 C21.907,65.1755 12.5,68.1165 12.5,73.4565 C12.5,80.7105 26.769,83.2835 38.989,83.2835 C65.086,83.2835 77.244,78.8965 77.244,75.9305 C77.244,71.7805 59.737,65.1745 38.989,65.1745 M38.989,87.2835 C19.897,87.2835 8.5,82.1145 8.5,73.4565 C8.5,62.4315 26.995,61.3035 36.233,61.1885 C29.024,59.8645 24.181,57.3435 24.1,52.5675 C24.069,50.7205 24.815,49.0105 26.316,47.4835 C29.493,44.2525 35.885,42.1655 43.043,40.9415 L42.916,40.9415 C37.835,40.9415 22.374,40.9395 22.374,31.2435 C22.374,25.0435 28.712,23.2355 36.18,22.7345 C32.951,21.4625 30.813,19.0395 30.813,16.2015 C30.813,12.0055 35.484,8.7175 41.448,8.7165 C47.411,8.7165 52.082,12.0045 52.082,16.2015 C52.082,18.9855 50.027,21.3685 46.903,22.6585 C56.969,23.1795 71.115,25.7175 71.115,32.8545 C71.115,36.3105 68.126,38.3515 62.916,39.5185 C70.844,39.5955 87.5,40.4715 87.5,50.3955 C87.5,54.0695 84.906,62.6135 60.883,62.6145 C59.118,62.6145 57.358,62.6085 55.616,62.5875 C69.014,64.7945 81.244,69.4855 81.244,75.9305 C81.244,80.1125 76.549,83.0845 66.888,85.0185 C59.588,86.4795 49.679,87.2835 38.989,87.2835" fill="#000000" fill-rule="evenodd"></path></svg>