<svg xmlns="http://www.w3.org/2000/svg" xmlns:xlink="http://www.w3.org/1999/xlink" width="96" height="96" viewBox="0 0 96 96"><use fill="#FFF" fill-rule="evenodd" xlink:href="#goal-onboarding-leaf-a"></use><path d="M26.0886904,66.0927579 C27.32562,63.2788318 28.7849817,60.5677213 30.4607316,57.9395402 C34.6736785,51.3321181 39.8548405,45.6783931 47.4410637,38.8234676 C48.8011722,37.594471 56.7125284,30.656392 58.8118896,28.7151289 C59.5215043,28.0589537 60.6286958,28.1022749 61.2848711,28.8118896 C61.9410463,29.5215043 61.8977251,30.6286958 61.1881104,31.2848711 C59.0474659,33.2643086 51.1151017,40.220811 49.7876034,41.420341 C33.8187151,55.8498585 26.1174734,67.9281866 24.7450474,86.1315661 C24.6723854,87.0953292 23.8321969,87.8177094 22.8684339,87.7450474 C21.9046708,87.6723854 21.1822906,86.8321969 21.2549526,85.8684339 C21.691674,80.0759144 22.8331116,74.7191532 24.6479658,69.6951625 C14.9990954,59.7581811 13.4382459,45.4643931 21.1423621,35.2164891 C24.5434545,30.6918939 28.5859246,27.4986658 33.4882192,25.1881028 C37.215664,23.4312732 40.6219459,22.4163111 47.0823814,20.8913987 C47.3048775,20.838881 47.4910704,20.7950245 47.8989212,20.6990185 C60.6506045,17.6971285 65.8783944,15.4019212 71.1796454,8.89468983 C72.0288233,7.85233252 73.6874139,8.11710748 74.1698555,9.37204257 C81.051483,27.2726455 78.046116,44.7272925 64.9290274,59.4409836 C56.4376432,68.9673791 39.6438344,74.8691675 31.6642843,72.0896082 C30.751574,71.771679 30.2694088,70.7740486 30.587338,69.8613383 C30.9052672,68.9486281 31.9028976,68.4664628 32.8156079,68.784392 C39.335766,71.0555935 54.7007287,65.6559394 62.3163823,57.1120169 C73.8829998,44.1375192 76.9880723,29.068664 71.8733604,13.3608884 C69.0110073,16.2641062 65.7246764,18.4448301 61.8880373,20.129267 C58.3205257,21.6955462 55.3458973,22.5415911 48.7009371,24.1058896 C48.2933175,24.2018412 48.1079763,24.2454971 47.886422,24.2977925 C35.1725699,27.2987529 29.4424959,29.9994672 23.9400341,37.3195896 C17.6040749,45.747591 18.5630886,57.4384864 26.0886904,66.0927579 Z" fill="#000000" fill-rule="evenodd"></path></svg>