<svg xmlns="http://www.w3.org/2000/svg" xmlns:xlink="http://www.w3.org/1999/xlink" width="96" height="96" viewBox="0 0 96 96"><path d="M13.8994384,61.2921988 C19.4444384,74.5631988 32.5994384,83.5001988 47.2934384,83.5001988 C67.2524384,83.5001988 83.4904384,67.3331988 83.4904384,47.4621988 C83.4904384,32.2291988 74.0214384,18.9281988 59.9814384,13.7361988 C61.7614384,18.0641988 62.6894384,22.7091988 62.6894384,27.3891988 C62.6894384,47.3101988 46.4194384,63.5161988 26.4204384,63.5161988 C22.0904384,63.5161988 17.8964384,62.7701988 13.8994384,61.2921988 M47.2934384,87.5001988 C29.2974384,87.5001988 13.3784384,75.4251988 8.58243843,58.1341988 C8.36943843,57.3661988 8.63243843,56.5451988 9.25243843,56.0441988 C9.87143843,55.5421988 10.7304384,55.4591988 11.4364384,55.8271988 C16.1134384,58.2741988 21.1544384,59.5161988 26.4204384,59.5161988 C44.2134384,59.5161988 58.6894384,45.1041988 58.6894384,27.3891988 C58.6894384,21.8381988 57.2194384,16.3421988 54.4394384,11.4951988 C54.0424384,10.8031988 54.0944384,9.9421988 54.5714384,9.3031988 C55.0484384,8.6651988 55.8594384,8.3691988 56.6354384,8.5541988 C74.8024384,12.8701988 87.4904384,28.8691988 87.4904384,47.4621988 C87.4904384,69.5391988 69.4584384,87.5001988 47.2934384,87.5001988 M23.9704384,26.9831988 C25.9614384,28.0941988 27.5254384,29.6581988 28.6364384,31.6471988 C29.7484384,29.6581988 31.3124384,28.0941988 33.3024384,26.9831988 C31.3124384,25.8721988 29.7484384,24.3081988 28.6364384,22.3191988 C27.5254384,24.3081988 25.9614384,25.8721988 23.9704384,26.9831988 M28.6364384,42.4831988 C27.5324384,42.4831988 26.6364384,41.5871988 26.6364384,40.4831988 C26.6364384,32.7451988 22.8724384,28.9831988 15.1274384,28.9831988 C14.0234384,28.9831988 13.1274384,28.0871988 13.1274384,26.9831988 C13.1274384,25.8781988 14.0234384,24.9831988 15.1274384,24.9831988 C22.8724384,24.9831988 26.6364384,21.2211988 26.6364384,13.4831988 C26.6364384,12.3781988 27.5324384,11.4831988 28.6364384,11.4831988 C29.7414384,11.4831988 30.6364384,12.3781988 30.6364384,13.4831988 C30.6364384,21.2211988 34.4014384,24.9831988 42.1464384,24.9831988 C43.2504384,24.9831988 44.1464384,25.8781988 44.1464384,26.9831988 C44.1464384,28.0871988 43.2504384,28.9831988 42.1464384,28.9831988 C34.4014384,28.9831988 30.6364384,32.7451988 30.6364384,40.4831988 C30.6364384,41.5871988 29.7414384,42.4831988 28.6364384,42.4831988" fill="#000000" fill-rule="evenodd"></path></svg>